<mxfile host="app.diagrams.net" modified="2023-10-23T23:42:40.429Z" agent="Mozilla/5.0 (Macintosh; Intel Mac OS X 10_15_7) AppleWebKit/537.36 (KHTML, like Gecko) Chrome/118.0.0.0 Safari/537.36" etag="ntasTb_MFnbZnBzrboPV" version="22.0.6" type="google">
  <diagram name="PÃ¡gina-1" id="rjEdgY1_8Tn5NdiMsRwh">
    <mxGraphModel grid="1" page="1" gridSize="10" guides="1" tooltips="1" connect="1" arrows="1" fold="1" pageScale="1" pageWidth="827" pageHeight="1169" math="0" shadow="0">
      <root>
        <mxCell id="0" />
        <mxCell id="1" parent="0" />
        <mxCell id="mSWZqbt-VT9xcwYAM_1T-1" value="" style="shape=umlLifeline;perimeter=lifelinePerimeter;whiteSpace=wrap;html=1;container=1;dropTarget=0;collapsible=0;recursiveResize=0;outlineConnect=0;portConstraint=eastwest;newEdgeStyle={&quot;curved&quot;:0,&quot;rounded&quot;:0};participant=umlActor;" vertex="1" parent="1">
          <mxGeometry x="-10" y="100" width="20" height="430" as="geometry" />
        </mxCell>
        <mxCell id="mSWZqbt-VT9xcwYAM_1T-2" value="" style="html=1;points=[[0,0,0,0,5],[0,1,0,0,-5],[1,0,0,0,5],[1,1,0,0,-5]];perimeter=orthogonalPerimeter;outlineConnect=0;targetShapes=umlLifeline;portConstraint=eastwest;newEdgeStyle={&quot;curved&quot;:0,&quot;rounded&quot;:0};" vertex="1" parent="mSWZqbt-VT9xcwYAM_1T-1">
          <mxGeometry x="5" y="70" width="10" height="340" as="geometry" />
        </mxCell>
        <mxCell id="mSWZqbt-VT9xcwYAM_1T-3" value="VistaEditarParticipante" style="shape=umlLifeline;perimeter=lifelinePerimeter;whiteSpace=wrap;html=1;container=1;dropTarget=0;collapsible=0;recursiveResize=0;outlineConnect=0;portConstraint=eastwest;newEdgeStyle={&quot;curved&quot;:0,&quot;rounded&quot;:0};" vertex="1" parent="1">
          <mxGeometry x="70" y="100" width="160" height="430" as="geometry" />
        </mxCell>
        <mxCell id="mSWZqbt-VT9xcwYAM_1T-56" style="edgeStyle=orthogonalEdgeStyle;rounded=0;orthogonalLoop=1;jettySize=auto;html=1;curved=0;exitX=1;exitY=1;exitDx=0;exitDy=-5;exitPerimeter=0;" edge="1" parent="mSWZqbt-VT9xcwYAM_1T-3">
          <mxGeometry relative="1" as="geometry">
            <mxPoint x="85" y="280" as="targetPoint" />
            <mxPoint x="85" y="335" as="sourcePoint" />
            <Array as="points">
              <mxPoint x="105" y="335" />
              <mxPoint x="105" y="280" />
            </Array>
          </mxGeometry>
        </mxCell>
        <mxCell id="mSWZqbt-VT9xcwYAM_1T-57" value="Modificaciones a &lt;br&gt;participante" style="edgeLabel;html=1;align=center;verticalAlign=middle;resizable=0;points=[];" connectable="0" vertex="1" parent="mSWZqbt-VT9xcwYAM_1T-56">
          <mxGeometry x="-0.0526" y="2" relative="1" as="geometry">
            <mxPoint x="27" as="offset" />
          </mxGeometry>
        </mxCell>
        <mxCell id="mSWZqbt-VT9xcwYAM_1T-4" value="" style="html=1;points=[[0,0,0,0,5],[0,1,0,0,-5],[1,0,0,0,5],[1,1,0,0,-5]];perimeter=orthogonalPerimeter;outlineConnect=0;targetShapes=umlLifeline;portConstraint=eastwest;newEdgeStyle={&quot;curved&quot;:0,&quot;rounded&quot;:0};" vertex="1" parent="mSWZqbt-VT9xcwYAM_1T-3">
          <mxGeometry x="75" y="70" width="10" height="340" as="geometry" />
        </mxCell>
        <mxCell id="mSWZqbt-VT9xcwYAM_1T-5" value="ControladorPaticipante" style="shape=umlLifeline;whiteSpace=wrap;html=1;container=1;dropTarget=0;collapsible=0;recursiveResize=0;outlineConnect=0;portConstraint=eastwest;newEdgeStyle={&quot;curved&quot;:0,&quot;rounded&quot;:0};points=[[0,0,0,0,5],[0,1,0,0,-5],[1,0,0,0,5],[1,1,0,0,-5]];perimeter=rectanglePerimeter;targetShapes=umlLifeline;participant=label;" vertex="1" parent="1">
          <mxGeometry x="250" y="100" width="160" height="430" as="geometry" />
        </mxCell>
        <mxCell id="mSWZqbt-VT9xcwYAM_1T-6" value="" style="html=1;points=[[0,0,0,0,5],[0,1,0,0,-5],[1,0,0,0,5],[1,1,0,0,-5]];perimeter=orthogonalPerimeter;outlineConnect=0;targetShapes=umlLifeline;portConstraint=eastwest;newEdgeStyle={&quot;curved&quot;:0,&quot;rounded&quot;:0};" vertex="1" parent="mSWZqbt-VT9xcwYAM_1T-5">
          <mxGeometry x="75" y="70" width="10" height="340" as="geometry" />
        </mxCell>
        <mxCell id="mSWZqbt-VT9xcwYAM_1T-7" value="BDDEditarParticipante" style="shape=umlLifeline;perimeter=lifelinePerimeter;whiteSpace=wrap;html=1;container=1;dropTarget=0;collapsible=0;recursiveResize=0;outlineConnect=0;portConstraint=eastwest;newEdgeStyle={&quot;curved&quot;:0,&quot;rounded&quot;:0};" vertex="1" parent="1">
          <mxGeometry x="425" y="100" width="160" height="430" as="geometry" />
        </mxCell>
        <mxCell id="mSWZqbt-VT9xcwYAM_1T-8" value="" style="html=1;points=[[0,0,0,0,5],[0,1,0,0,-5],[1,0,0,0,5],[1,1,0,0,-5]];perimeter=orthogonalPerimeter;outlineConnect=0;targetShapes=umlLifeline;portConstraint=eastwest;newEdgeStyle={&quot;curved&quot;:0,&quot;rounded&quot;:0};" vertex="1" parent="mSWZqbt-VT9xcwYAM_1T-7">
          <mxGeometry x="75" y="100" width="10" height="310" as="geometry" />
        </mxCell>
        <mxCell id="mSWZqbt-VT9xcwYAM_1T-9" value="ConexionBDD" style="shape=umlLifeline;perimeter=lifelinePerimeter;whiteSpace=wrap;html=1;container=1;dropTarget=0;collapsible=0;recursiveResize=0;outlineConnect=0;portConstraint=eastwest;newEdgeStyle={&quot;curved&quot;:0,&quot;rounded&quot;:0};" vertex="1" parent="1">
          <mxGeometry x="600" y="100" width="160" height="430" as="geometry" />
        </mxCell>
        <mxCell id="mSWZqbt-VT9xcwYAM_1T-10" value="" style="html=1;points=[[0,0,0,0,5],[0,1,0,0,-5],[1,0,0,0,5],[1,1,0,0,-5]];perimeter=orthogonalPerimeter;outlineConnect=0;targetShapes=umlLifeline;portConstraint=eastwest;newEdgeStyle={&quot;curved&quot;:0,&quot;rounded&quot;:0};" vertex="1" parent="mSWZqbt-VT9xcwYAM_1T-9">
          <mxGeometry x="75" y="130" width="10" height="280" as="geometry" />
        </mxCell>
        <mxCell id="mSWZqbt-VT9xcwYAM_1T-11" style="edgeStyle=orthogonalEdgeStyle;rounded=0;orthogonalLoop=1;jettySize=auto;html=1;curved=0;exitX=1;exitY=0;exitDx=0;exitDy=5;exitPerimeter=0;entryX=0;entryY=0;entryDx=0;entryDy=5;entryPerimeter=0;" edge="1" parent="1" source="mSWZqbt-VT9xcwYAM_1T-4" target="mSWZqbt-VT9xcwYAM_1T-6">
          <mxGeometry relative="1" as="geometry" />
        </mxCell>
        <mxCell id="mSWZqbt-VT9xcwYAM_1T-12" value="VistaEditarPerfil&lt;br&gt;(Inicializacion atributo)" style="edgeLabel;html=1;align=center;verticalAlign=middle;resizable=0;points=[];" connectable="0" vertex="1" parent="mSWZqbt-VT9xcwYAM_1T-11">
          <mxGeometry x="0.1294" y="3" relative="1" as="geometry">
            <mxPoint x="-21" as="offset" />
          </mxGeometry>
        </mxCell>
        <mxCell id="mSWZqbt-VT9xcwYAM_1T-13" style="edgeStyle=orthogonalEdgeStyle;rounded=0;orthogonalLoop=1;jettySize=auto;html=1;curved=0;exitX=1;exitY=0;exitDx=0;exitDy=5;exitPerimeter=0;entryX=0;entryY=0;entryDx=0;entryDy=5;entryPerimeter=0;" edge="1" parent="1" source="mSWZqbt-VT9xcwYAM_1T-6" target="mSWZqbt-VT9xcwYAM_1T-8">
          <mxGeometry relative="1" as="geometry" />
        </mxCell>
        <mxCell id="mSWZqbt-VT9xcwYAM_1T-53" value="obtenerDatosParticipante" style="edgeLabel;html=1;align=center;verticalAlign=middle;resizable=0;points=[];" connectable="0" vertex="1" parent="mSWZqbt-VT9xcwYAM_1T-13">
          <mxGeometry x="-0.0205" y="2" relative="1" as="geometry">
            <mxPoint as="offset" />
          </mxGeometry>
        </mxCell>
        <mxCell id="mSWZqbt-VT9xcwYAM_1T-15" style="edgeStyle=orthogonalEdgeStyle;rounded=0;orthogonalLoop=1;jettySize=auto;html=1;curved=0;exitX=1;exitY=0;exitDx=0;exitDy=5;exitPerimeter=0;entryX=0;entryY=0;entryDx=0;entryDy=5;entryPerimeter=0;" edge="1" parent="1" source="mSWZqbt-VT9xcwYAM_1T-8" target="mSWZqbt-VT9xcwYAM_1T-10">
          <mxGeometry relative="1" as="geometry" />
        </mxCell>
        <mxCell id="mSWZqbt-VT9xcwYAM_1T-16" value="conectarBDD()" style="edgeLabel;html=1;align=center;verticalAlign=middle;resizable=0;points=[];" connectable="0" vertex="1" parent="mSWZqbt-VT9xcwYAM_1T-15">
          <mxGeometry x="-0.0098" y="2" relative="1" as="geometry">
            <mxPoint y="1" as="offset" />
          </mxGeometry>
        </mxCell>
        <mxCell id="mSWZqbt-VT9xcwYAM_1T-17" value="conexionBDD" style="endArrow=open;endSize=12;dashed=1;html=1;rounded=0;" edge="1" parent="1" target="mSWZqbt-VT9xcwYAM_1T-8">
          <mxGeometry width="160" relative="1" as="geometry">
            <mxPoint x="670.5" y="260" as="sourcePoint" />
            <mxPoint x="500" y="260" as="targetPoint" />
          </mxGeometry>
        </mxCell>
        <mxCell id="mSWZqbt-VT9xcwYAM_1T-18" value="Participante" style="html=1;verticalAlign=bottom;endArrow=open;dashed=1;endSize=8;curved=0;rounded=0;" edge="1" parent="1">
          <mxGeometry x="-0.0678" y="10" relative="1" as="geometry">
            <mxPoint x="670" y="350" as="sourcePoint" />
            <mxPoint x="510" y="350" as="targetPoint" />
            <mxPoint as="offset" />
          </mxGeometry>
        </mxCell>
        <mxCell id="mSWZqbt-VT9xcwYAM_1T-19" style="edgeStyle=orthogonalEdgeStyle;rounded=0;orthogonalLoop=1;jettySize=auto;html=1;curved=0;" edge="1" parent="1">
          <mxGeometry relative="1" as="geometry">
            <mxPoint x="510" y="285" as="sourcePoint" />
            <mxPoint x="675" y="300" as="targetPoint" />
            <Array as="points">
              <mxPoint x="510" y="286" />
              <mxPoint x="593" y="286" />
              <mxPoint x="593" y="320" />
              <mxPoint x="676" y="320" />
            </Array>
          </mxGeometry>
        </mxCell>
        <mxCell id="mSWZqbt-VT9xcwYAM_1T-52" value="obtenerNombre/&lt;br style=&quot;border-color: var(--border-color);&quot;&gt;Correo/&lt;br style=&quot;border-color: var(--border-color);&quot;&gt;Username/&lt;br style=&quot;border-color: var(--border-color);&quot;&gt;FotoParticipante()" style="edgeLabel;html=1;align=center;verticalAlign=middle;resizable=0;points=[];" connectable="0" vertex="1" parent="mSWZqbt-VT9xcwYAM_1T-19">
          <mxGeometry x="-0.0951" y="-3" relative="1" as="geometry">
            <mxPoint as="offset" />
          </mxGeometry>
        </mxCell>
        <mxCell id="mSWZqbt-VT9xcwYAM_1T-21" value="Participante" style="html=1;verticalAlign=bottom;endArrow=open;dashed=1;endSize=8;curved=0;rounded=0;" edge="1" parent="1" target="mSWZqbt-VT9xcwYAM_1T-6">
          <mxGeometry x="-0.0678" y="10" relative="1" as="geometry">
            <mxPoint x="499.5" y="350" as="sourcePoint" />
            <mxPoint x="340" y="350" as="targetPoint" />
            <mxPoint as="offset" />
          </mxGeometry>
        </mxCell>
        <mxCell id="mSWZqbt-VT9xcwYAM_1T-22" value="participante: Participante" style="html=1;verticalAlign=bottom;endArrow=open;dashed=1;endSize=8;curved=0;rounded=0;" edge="1" parent="1" target="mSWZqbt-VT9xcwYAM_1T-4">
          <mxGeometry x="-0.0678" y="10" relative="1" as="geometry">
            <mxPoint x="319.5" y="350" as="sourcePoint" />
            <mxPoint x="160" y="350" as="targetPoint" />
            <mxPoint as="offset" />
          </mxGeometry>
        </mxCell>
        <mxCell id="mSWZqbt-VT9xcwYAM_1T-23" style="edgeStyle=orthogonalEdgeStyle;rounded=0;orthogonalLoop=1;jettySize=auto;html=1;curved=0;exitX=1;exitY=0;exitDx=0;exitDy=5;exitPerimeter=0;entryX=0;entryY=0;entryDx=0;entryDy=5;entryPerimeter=0;" edge="1" parent="1" source="mSWZqbt-VT9xcwYAM_1T-2" target="mSWZqbt-VT9xcwYAM_1T-4">
          <mxGeometry relative="1" as="geometry" />
        </mxCell>
        <mxCell id="mSWZqbt-VT9xcwYAM_1T-24" value="&lt;font style=&quot;font-size: 18px;&quot;&gt;Flujo normal&lt;/font&gt;" style="text;html=1;strokeColor=none;fillColor=none;align=center;verticalAlign=middle;whiteSpace=wrap;rounded=0;" vertex="1" parent="1">
          <mxGeometry x="-57.5" y="40" width="205" height="30" as="geometry" />
        </mxCell>
        <mxCell id="mSWZqbt-VT9xcwYAM_1T-25" value="&lt;span style=&quot;font-size: 18px;&quot;&gt;Flujo Alternativo&lt;/span&gt;" style="text;html=1;strokeColor=none;fillColor=none;align=center;verticalAlign=middle;whiteSpace=wrap;rounded=0;" vertex="1" parent="1">
          <mxGeometry x="-57.5" y="590" width="205" height="30" as="geometry" />
        </mxCell>
        <mxCell id="mSWZqbt-VT9xcwYAM_1T-58" value="z" style="edgeLabel;html=1;align=center;verticalAlign=middle;resizable=0;points=[];" connectable="0" vertex="1" parent="1">
          <mxGeometry x="240" y="182" as="geometry" />
        </mxCell>
        <mxCell id="mSWZqbt-VT9xcwYAM_1T-59" style="edgeStyle=orthogonalEdgeStyle;rounded=0;orthogonalLoop=1;jettySize=auto;html=1;curved=0;exitX=1;exitY=0;exitDx=0;exitDy=5;exitPerimeter=0;entryX=0;entryY=0;entryDx=0;entryDy=5;entryPerimeter=0;" edge="1" parent="1">
          <mxGeometry relative="1" as="geometry">
            <mxPoint x="155" y="460" as="sourcePoint" />
            <mxPoint x="325" y="460" as="targetPoint" />
          </mxGeometry>
        </mxCell>
        <mxCell id="mSWZqbt-VT9xcwYAM_1T-60" value="modificarDatosParticipante()" style="edgeLabel;html=1;align=center;verticalAlign=middle;resizable=0;points=[];" connectable="0" vertex="1" parent="mSWZqbt-VT9xcwYAM_1T-59">
          <mxGeometry x="0.1294" y="3" relative="1" as="geometry">
            <mxPoint x="-21" as="offset" />
          </mxGeometry>
        </mxCell>
        <mxCell id="mSWZqbt-VT9xcwYAM_1T-69" style="edgeStyle=orthogonalEdgeStyle;rounded=0;orthogonalLoop=1;jettySize=auto;html=1;curved=0;exitX=1;exitY=0;exitDx=0;exitDy=5;exitPerimeter=0;" edge="1" parent="1">
          <mxGeometry relative="1" as="geometry">
            <mxPoint x="329" y="460" as="sourcePoint" />
            <mxPoint x="499" y="490" as="targetPoint" />
            <Array as="points">
              <mxPoint x="329" y="461" />
              <mxPoint x="415" y="461" />
              <mxPoint x="415" y="490" />
            </Array>
          </mxGeometry>
        </mxCell>
        <mxCell id="mSWZqbt-VT9xcwYAM_1T-70" value="modificarDatos(id,participante)" style="edgeLabel;html=1;align=center;verticalAlign=middle;resizable=0;points=[];" connectable="0" vertex="1" parent="mSWZqbt-VT9xcwYAM_1T-69">
          <mxGeometry x="-0.0205" y="2" relative="1" as="geometry">
            <mxPoint x="-3" as="offset" />
          </mxGeometry>
        </mxCell>
        <mxCell id="mSWZqbt-VT9xcwYAM_1T-71" style="edgeStyle=orthogonalEdgeStyle;rounded=0;orthogonalLoop=1;jettySize=auto;html=1;curved=0;exitX=1;exitY=0;exitDx=0;exitDy=5;exitPerimeter=0;entryX=0;entryY=0;entryDx=0;entryDy=5;entryPerimeter=0;" edge="1" parent="1">
          <mxGeometry relative="1" as="geometry">
            <mxPoint x="510" y="490" as="sourcePoint" />
            <mxPoint x="680" y="490" as="targetPoint" />
          </mxGeometry>
        </mxCell>
        <mxCell id="mSWZqbt-VT9xcwYAM_1T-72" value="modificarDatos(id,&lt;br&gt;participante)" style="edgeLabel;html=1;align=center;verticalAlign=middle;resizable=0;points=[];" connectable="0" vertex="1" parent="mSWZqbt-VT9xcwYAM_1T-71">
          <mxGeometry x="0.1294" y="3" relative="1" as="geometry">
            <mxPoint x="-6" y="3" as="offset" />
          </mxGeometry>
        </mxCell>
        <mxCell id="mSWZqbt-VT9xcwYAM_1T-139" value="" style="shape=umlLifeline;perimeter=lifelinePerimeter;whiteSpace=wrap;html=1;container=1;dropTarget=0;collapsible=0;recursiveResize=0;outlineConnect=0;portConstraint=eastwest;newEdgeStyle={&quot;curved&quot;:0,&quot;rounded&quot;:0};participant=umlActor;" vertex="1" parent="1">
          <mxGeometry x="-10" y="650" width="20" height="430" as="geometry" />
        </mxCell>
        <mxCell id="mSWZqbt-VT9xcwYAM_1T-140" value="" style="html=1;points=[[0,0,0,0,5],[0,1,0,0,-5],[1,0,0,0,5],[1,1,0,0,-5]];perimeter=orthogonalPerimeter;outlineConnect=0;targetShapes=umlLifeline;portConstraint=eastwest;newEdgeStyle={&quot;curved&quot;:0,&quot;rounded&quot;:0};" vertex="1" parent="mSWZqbt-VT9xcwYAM_1T-139">
          <mxGeometry x="5" y="70" width="10" height="340" as="geometry" />
        </mxCell>
        <mxCell id="mSWZqbt-VT9xcwYAM_1T-141" value="VistaEditarParticipante" style="shape=umlLifeline;perimeter=lifelinePerimeter;whiteSpace=wrap;html=1;container=1;dropTarget=0;collapsible=0;recursiveResize=0;outlineConnect=0;portConstraint=eastwest;newEdgeStyle={&quot;curved&quot;:0,&quot;rounded&quot;:0};" vertex="1" parent="1">
          <mxGeometry x="70" y="650" width="160" height="430" as="geometry" />
        </mxCell>
        <mxCell id="mSWZqbt-VT9xcwYAM_1T-142" style="edgeStyle=orthogonalEdgeStyle;rounded=0;orthogonalLoop=1;jettySize=auto;html=1;curved=0;exitX=1;exitY=1;exitDx=0;exitDy=-5;exitPerimeter=0;" edge="1" parent="mSWZqbt-VT9xcwYAM_1T-141">
          <mxGeometry relative="1" as="geometry">
            <mxPoint x="85" y="280" as="targetPoint" />
            <mxPoint x="85" y="335" as="sourcePoint" />
            <Array as="points">
              <mxPoint x="105" y="335" />
              <mxPoint x="105" y="280" />
            </Array>
          </mxGeometry>
        </mxCell>
        <mxCell id="mSWZqbt-VT9xcwYAM_1T-143" value="Modificaciones a &lt;br&gt;participante" style="edgeLabel;html=1;align=center;verticalAlign=middle;resizable=0;points=[];" connectable="0" vertex="1" parent="mSWZqbt-VT9xcwYAM_1T-142">
          <mxGeometry x="-0.0526" y="2" relative="1" as="geometry">
            <mxPoint x="27" as="offset" />
          </mxGeometry>
        </mxCell>
        <mxCell id="mSWZqbt-VT9xcwYAM_1T-144" value="" style="html=1;points=[[0,0,0,0,5],[0,1,0,0,-5],[1,0,0,0,5],[1,1,0,0,-5]];perimeter=orthogonalPerimeter;outlineConnect=0;targetShapes=umlLifeline;portConstraint=eastwest;newEdgeStyle={&quot;curved&quot;:0,&quot;rounded&quot;:0};" vertex="1" parent="mSWZqbt-VT9xcwYAM_1T-141">
          <mxGeometry x="75" y="70" width="10" height="340" as="geometry" />
        </mxCell>
        <mxCell id="mSWZqbt-VT9xcwYAM_1T-145" value="ControladorPaticipante" style="shape=umlLifeline;whiteSpace=wrap;html=1;container=1;dropTarget=0;collapsible=0;recursiveResize=0;outlineConnect=0;portConstraint=eastwest;newEdgeStyle={&quot;curved&quot;:0,&quot;rounded&quot;:0};points=[[0,0,0,0,5],[0,1,0,0,-5],[1,0,0,0,5],[1,1,0,0,-5]];perimeter=rectanglePerimeter;targetShapes=umlLifeline;participant=label;" vertex="1" parent="1">
          <mxGeometry x="250" y="650" width="160" height="430" as="geometry" />
        </mxCell>
        <mxCell id="mSWZqbt-VT9xcwYAM_1T-146" value="" style="html=1;points=[[0,0,0,0,5],[0,1,0,0,-5],[1,0,0,0,5],[1,1,0,0,-5]];perimeter=orthogonalPerimeter;outlineConnect=0;targetShapes=umlLifeline;portConstraint=eastwest;newEdgeStyle={&quot;curved&quot;:0,&quot;rounded&quot;:0};" vertex="1" parent="mSWZqbt-VT9xcwYAM_1T-145">
          <mxGeometry x="75" y="70" width="10" height="340" as="geometry" />
        </mxCell>
        <mxCell id="mSWZqbt-VT9xcwYAM_1T-147" value="BDDEditarParticipante" style="shape=umlLifeline;perimeter=lifelinePerimeter;whiteSpace=wrap;html=1;container=1;dropTarget=0;collapsible=0;recursiveResize=0;outlineConnect=0;portConstraint=eastwest;newEdgeStyle={&quot;curved&quot;:0,&quot;rounded&quot;:0};" vertex="1" parent="1">
          <mxGeometry x="425" y="650" width="160" height="430" as="geometry" />
        </mxCell>
        <mxCell id="mSWZqbt-VT9xcwYAM_1T-148" value="" style="html=1;points=[[0,0,0,0,5],[0,1,0,0,-5],[1,0,0,0,5],[1,1,0,0,-5]];perimeter=orthogonalPerimeter;outlineConnect=0;targetShapes=umlLifeline;portConstraint=eastwest;newEdgeStyle={&quot;curved&quot;:0,&quot;rounded&quot;:0};" vertex="1" parent="mSWZqbt-VT9xcwYAM_1T-147">
          <mxGeometry x="75" y="100" width="10" height="310" as="geometry" />
        </mxCell>
        <mxCell id="mSWZqbt-VT9xcwYAM_1T-149" value="ConexionBDD" style="shape=umlLifeline;perimeter=lifelinePerimeter;whiteSpace=wrap;html=1;container=1;dropTarget=0;collapsible=0;recursiveResize=0;outlineConnect=0;portConstraint=eastwest;newEdgeStyle={&quot;curved&quot;:0,&quot;rounded&quot;:0};" vertex="1" parent="1">
          <mxGeometry x="600" y="650" width="160" height="430" as="geometry" />
        </mxCell>
        <mxCell id="mSWZqbt-VT9xcwYAM_1T-150" value="" style="html=1;points=[[0,0,0,0,5],[0,1,0,0,-5],[1,0,0,0,5],[1,1,0,0,-5]];perimeter=orthogonalPerimeter;outlineConnect=0;targetShapes=umlLifeline;portConstraint=eastwest;newEdgeStyle={&quot;curved&quot;:0,&quot;rounded&quot;:0};" vertex="1" parent="mSWZqbt-VT9xcwYAM_1T-149">
          <mxGeometry x="75" y="130" width="10" height="280" as="geometry" />
        </mxCell>
        <mxCell id="mSWZqbt-VT9xcwYAM_1T-151" style="edgeStyle=orthogonalEdgeStyle;rounded=0;orthogonalLoop=1;jettySize=auto;html=1;curved=0;exitX=1;exitY=0;exitDx=0;exitDy=5;exitPerimeter=0;entryX=0;entryY=0;entryDx=0;entryDy=5;entryPerimeter=0;" edge="1" parent="1" source="mSWZqbt-VT9xcwYAM_1T-144" target="mSWZqbt-VT9xcwYAM_1T-146">
          <mxGeometry relative="1" as="geometry" />
        </mxCell>
        <mxCell id="mSWZqbt-VT9xcwYAM_1T-152" value="VistaEditarPerfil&lt;br&gt;(Inicializacion atributo)" style="edgeLabel;html=1;align=center;verticalAlign=middle;resizable=0;points=[];" connectable="0" vertex="1" parent="mSWZqbt-VT9xcwYAM_1T-151">
          <mxGeometry x="0.1294" y="3" relative="1" as="geometry">
            <mxPoint x="-21" as="offset" />
          </mxGeometry>
        </mxCell>
        <mxCell id="mSWZqbt-VT9xcwYAM_1T-153" style="edgeStyle=orthogonalEdgeStyle;rounded=0;orthogonalLoop=1;jettySize=auto;html=1;curved=0;exitX=1;exitY=0;exitDx=0;exitDy=5;exitPerimeter=0;entryX=0;entryY=0;entryDx=0;entryDy=5;entryPerimeter=0;" edge="1" parent="1" source="mSWZqbt-VT9xcwYAM_1T-146" target="mSWZqbt-VT9xcwYAM_1T-148">
          <mxGeometry relative="1" as="geometry" />
        </mxCell>
        <mxCell id="mSWZqbt-VT9xcwYAM_1T-154" value="obtenerDatosParticipante" style="edgeLabel;html=1;align=center;verticalAlign=middle;resizable=0;points=[];" connectable="0" vertex="1" parent="mSWZqbt-VT9xcwYAM_1T-153">
          <mxGeometry x="-0.0205" y="2" relative="1" as="geometry">
            <mxPoint as="offset" />
          </mxGeometry>
        </mxCell>
        <mxCell id="mSWZqbt-VT9xcwYAM_1T-155" style="edgeStyle=orthogonalEdgeStyle;rounded=0;orthogonalLoop=1;jettySize=auto;html=1;curved=0;exitX=1;exitY=0;exitDx=0;exitDy=5;exitPerimeter=0;entryX=0;entryY=0;entryDx=0;entryDy=5;entryPerimeter=0;" edge="1" parent="1" source="mSWZqbt-VT9xcwYAM_1T-148" target="mSWZqbt-VT9xcwYAM_1T-150">
          <mxGeometry relative="1" as="geometry" />
        </mxCell>
        <mxCell id="mSWZqbt-VT9xcwYAM_1T-156" value="conectarBDD()" style="edgeLabel;html=1;align=center;verticalAlign=middle;resizable=0;points=[];" connectable="0" vertex="1" parent="mSWZqbt-VT9xcwYAM_1T-155">
          <mxGeometry x="-0.0098" y="2" relative="1" as="geometry">
            <mxPoint y="1" as="offset" />
          </mxGeometry>
        </mxCell>
        <mxCell id="mSWZqbt-VT9xcwYAM_1T-157" value="conexionBDD" style="endArrow=open;endSize=12;dashed=1;html=1;rounded=0;" edge="1" parent="1" target="mSWZqbt-VT9xcwYAM_1T-148">
          <mxGeometry width="160" relative="1" as="geometry">
            <mxPoint x="670.5" y="810" as="sourcePoint" />
            <mxPoint x="500" y="810" as="targetPoint" />
          </mxGeometry>
        </mxCell>
        <mxCell id="mSWZqbt-VT9xcwYAM_1T-158" value="Participante" style="html=1;verticalAlign=bottom;endArrow=open;dashed=1;endSize=8;curved=0;rounded=0;" edge="1" parent="1">
          <mxGeometry x="-0.0678" y="10" relative="1" as="geometry">
            <mxPoint x="670" y="900" as="sourcePoint" />
            <mxPoint x="510" y="900" as="targetPoint" />
            <mxPoint as="offset" />
          </mxGeometry>
        </mxCell>
        <mxCell id="mSWZqbt-VT9xcwYAM_1T-159" style="edgeStyle=orthogonalEdgeStyle;rounded=0;orthogonalLoop=1;jettySize=auto;html=1;curved=0;" edge="1" parent="1">
          <mxGeometry relative="1" as="geometry">
            <mxPoint x="510" y="835" as="sourcePoint" />
            <mxPoint x="675" y="850" as="targetPoint" />
            <Array as="points">
              <mxPoint x="510" y="836" />
              <mxPoint x="593" y="836" />
              <mxPoint x="593" y="870" />
              <mxPoint x="676" y="870" />
            </Array>
          </mxGeometry>
        </mxCell>
        <mxCell id="mSWZqbt-VT9xcwYAM_1T-160" value="obtenerNombre/&lt;br style=&quot;border-color: var(--border-color);&quot;&gt;Correo/&lt;br style=&quot;border-color: var(--border-color);&quot;&gt;Username/&lt;br style=&quot;border-color: var(--border-color);&quot;&gt;FotoParticipante()" style="edgeLabel;html=1;align=center;verticalAlign=middle;resizable=0;points=[];" connectable="0" vertex="1" parent="mSWZqbt-VT9xcwYAM_1T-159">
          <mxGeometry x="-0.0951" y="-3" relative="1" as="geometry">
            <mxPoint as="offset" />
          </mxGeometry>
        </mxCell>
        <mxCell id="mSWZqbt-VT9xcwYAM_1T-161" value="Participante" style="html=1;verticalAlign=bottom;endArrow=open;dashed=1;endSize=8;curved=0;rounded=0;" edge="1" parent="1" target="mSWZqbt-VT9xcwYAM_1T-146">
          <mxGeometry x="-0.0678" y="10" relative="1" as="geometry">
            <mxPoint x="499.5" y="900" as="sourcePoint" />
            <mxPoint x="340" y="900" as="targetPoint" />
            <mxPoint as="offset" />
          </mxGeometry>
        </mxCell>
        <mxCell id="mSWZqbt-VT9xcwYAM_1T-162" value="participante: Participante" style="html=1;verticalAlign=bottom;endArrow=open;dashed=1;endSize=8;curved=0;rounded=0;" edge="1" parent="1" target="mSWZqbt-VT9xcwYAM_1T-144">
          <mxGeometry x="-0.0678" y="10" relative="1" as="geometry">
            <mxPoint x="319.5" y="900" as="sourcePoint" />
            <mxPoint x="160" y="900" as="targetPoint" />
            <mxPoint as="offset" />
          </mxGeometry>
        </mxCell>
        <mxCell id="mSWZqbt-VT9xcwYAM_1T-163" style="edgeStyle=orthogonalEdgeStyle;rounded=0;orthogonalLoop=1;jettySize=auto;html=1;curved=0;exitX=1;exitY=0;exitDx=0;exitDy=5;exitPerimeter=0;entryX=0;entryY=0;entryDx=0;entryDy=5;entryPerimeter=0;" edge="1" parent="1" source="mSWZqbt-VT9xcwYAM_1T-140" target="mSWZqbt-VT9xcwYAM_1T-144">
          <mxGeometry relative="1" as="geometry" />
        </mxCell>
        <mxCell id="mSWZqbt-VT9xcwYAM_1T-164" value="z" style="edgeLabel;html=1;align=center;verticalAlign=middle;resizable=0;points=[];" connectable="0" vertex="1" parent="1">
          <mxGeometry x="240" y="732" as="geometry" />
        </mxCell>
        <mxCell id="mSWZqbt-VT9xcwYAM_1T-165" style="edgeStyle=orthogonalEdgeStyle;rounded=0;orthogonalLoop=1;jettySize=auto;html=1;curved=0;exitX=1;exitY=0;exitDx=0;exitDy=5;exitPerimeter=0;entryX=0;entryY=0;entryDx=0;entryDy=5;entryPerimeter=0;" edge="1" parent="1">
          <mxGeometry relative="1" as="geometry">
            <mxPoint x="155" y="1030" as="sourcePoint" />
            <mxPoint x="325" y="1030" as="targetPoint" />
          </mxGeometry>
        </mxCell>
        <mxCell id="mSWZqbt-VT9xcwYAM_1T-166" value="*Cambio de pagina*" style="edgeLabel;html=1;align=center;verticalAlign=middle;resizable=0;points=[];" connectable="0" vertex="1" parent="mSWZqbt-VT9xcwYAM_1T-165">
          <mxGeometry x="0.1294" y="3" relative="1" as="geometry">
            <mxPoint x="-21" as="offset" />
          </mxGeometry>
        </mxCell>
      </root>
    </mxGraphModel>
  </diagram>
</mxfile>
